<?xml version="1.0" standalone="no"?>
<!DOCTYPE svg PUBLIC "-//W3C//DTD SVG 1.1//EN" "http://www.w3.org/Graphics/SVG/1.1/DTD/svg11.dtd" >
<svg xmlns="http://www.w3.org/2000/svg">
<metadata></metadata>
<defs>
<font id="uvn_la_xanhregular" horiz-adv-x="1110" >
<font-face units-per-em="2048" ascent="1638" descent="-410" />
<missing-glyph horiz-adv-x="555" />
<glyph horiz-adv-x="2048" />
<glyph horiz-adv-x="2048" />
<glyph unicode="&#xd;" horiz-adv-x="555" />
<glyph unicode=" "  horiz-adv-x="555" />
<glyph unicode="&#x09;" horiz-adv-x="555" />
<glyph unicode="&#xa0;" horiz-adv-x="555" />
<glyph unicode="!" horiz-adv-x="602" d="M160 102q85 74 141 142q61 -71 139 -142q-60 -54 -139 -141q-78 84 -141 141zM193 1364l223 37q-50 -575 -70 -1067l-94 -19q-6 403 -21 656q-15 259 -38 393z" />
<glyph unicode="&#x22;" horiz-adv-x="614" d="M90 881v555h139v-555h-139zM385 881v555h139v-555h-139z" />
<glyph unicode="#" horiz-adv-x="1575" d="M88 449l53 147h310l92 262h-330l51 146h332l162 454h166l-162 -454h256l164 454h164l-160 -454h301l-51 -146h-303l-93 -262h322l-51 -147h-322l-162 -453h-165l161 453h-258l-162 -453h-165l159 453h-309zM616 594h261l92 264h-260z" />
<glyph unicode="$" d="M207 170l129 174q88 -90 186 -108v380q-313 124 -313 322q0 65 23 123q27 72 124 188q106 129 166 138l-6 98l90 16l-4 -106q205 0 313 -142l-141 -155q-65 87 -171 106l-1 -379q162 -62 229 -114q109 -85 109 -217q0 -84 -82 -214q-63 -100 -145 -186q-45 -47 -111 -59 q0 -71 10 -141l-100 -23q10 101 10 156q-192 0 -315 143zM346 1069q0 -140 176 -217v360h-16q-87 0 -148 -53q-12 -48 -12 -90zM602 225h16q111 0 177 70v27q0 185 -193 260v-357z" />
<glyph unicode="%" horiz-adv-x="1626" d="M72 967q0 97 24 184q36 134 70 162l188 157q11 9 54 9q144 0 225 -108q72 -96 72 -245q0 -125 -39 -236q-48 -137 -109 -188l-139 -114q-16 -13 -56 -13q-146 0 -224 129q-66 108 -66 263zM201 1049q0 -134 58 -232q69 -117 194 -117q21 0 49 9q73 128 73 311 q0 136 -48 227q-61 117 -185 117q-36 0 -68 -12q-73 -101 -73 -303zM340 -39l856 1518h76l-856 -1518h-76zM924 354q0 97 23 183q35 131 71 161l188 160q26 8 54 8q144 0 224 -107q72 -97 72 -245q0 -125 -38 -236q-48 -136 -109 -188q-46 -38 -138 -115q-17 -14 -57 -14 q-145 0 -224 130q-66 108 -66 263zM1053 436q0 -133 58 -231q69 -117 194 -117q9 0 26 3.5t23 4.5q73 130 73 312q0 135 -48 227q-62 117 -185 117q-33 0 -68 -13q-73 -101 -73 -303z" />
<glyph unicode="&#x26;" horiz-adv-x="1067" d="M100 358q0 279 330 455q-244 81 -244 264q0 70 74 193l15 25q48 81 162 134q107 50 208 50q124 0 227 -80l-143 -182q-104 100 -276 100q-56 0 -77 -12q-30 -16 -30 -66q0 -248 508 -283l-119 -186q-13 1 -59 6q-37 4 -59 4q-5 0 -42 -6q-149 -24 -221 -79 q-84 -65 -84 -179q0 -169 120 -272q114 -97 286 -97q59 0 81 8q40 15 40 62q0 113 -98 174q-83 51 -203 51q-46 0 -72 -4l100 152h496l-90 -150h-66q41 -33 41 -121q0 -61 -37 -132q-117 -226 -368 -226q-163 0 -281.5 117t-118.5 280z" />
<glyph unicode="'" horiz-adv-x="317" d="M90 881v555h139v-555h-139z" />
<glyph unicode="(" horiz-adv-x="545" d="M125 467q0 564 287 1018l88 -43q-215 -468 -215 -959q0 -516 213 -950l-90 -47q-283 446 -283 981z" />
<glyph unicode=")" horiz-adv-x="545" d="M47 -469q213 464 213 958q0 515 -211 951l88 45q283 -448 283 -973q0 -572 -287 -1026z" />
<glyph unicode="*" horiz-adv-x="1024" d="M223 1059l213 112l-211 111l47 82l201 -127l-8 242h94l-10 -242l205 129l47 -82l-213 -113l211 -110l-47 -82l-201 127l8 -242h-94l8 242l-203 -129z" />
<glyph unicode="+" horiz-adv-x="1706" d="M254 541v139h528v541h142v-541h528v-139h-528v-541h-142v541h-528z" />
<glyph unicode="," horiz-adv-x="555" d="M139 135l137 158q125 -85 125 -193q0 -111 -217 -321l-24 24q90 103 90 168q0 73 -111 164z" />
<glyph unicode="-" horiz-adv-x="502" d="M43 410l57 143h361l-58 -143h-360z" />
<glyph unicode="." horiz-adv-x="555" d="M137 102q68 56 139 142q67 -75 142 -142q-69 -61 -142 -141q-87 96 -139 141z" />
<glyph unicode="/" horiz-adv-x="750" d="M14 -190l645 1669h76l-645 -1669h-76z" />
<glyph unicode="0" d="M51 612q0 173 44 323q52 181 130 277q30 38 139 138q54 50 133 114q28 15 89 15q201 0 336 -172.5t135 -442.5q0 -540 -297 -796q-91 -78 -129 -92.5t-109 -14.5q-246 0 -370 213q-101 174 -101 438zM227 758q0 -257 94 -415q116 -193 357 -193q74 0 108 26 q97 167 97 506q0 274 -121.5 441t-310.5 167q-34 0 -86 -18q-138 -209 -138 -514z" />
<glyph unicode="1" d="M438 0q17 381 17 1055q0 154 -6 366l221 58q-13 -551 -13 -885q0 -354 13 -594h-232z" />
<glyph unicode="2" d="M80 0l55 170q290 88 341.5 126.5t111.5 135.5q121 196 121 406q0 201 -94 324q-104 136 -300 136q-132 0 -215 -63l-12 12l158 176q50 56 219 56q204 0 324 -147q110 -136 110 -345q0 -461 -463 -817h484l-62 -170h-778z" />
<glyph unicode="3" d="M162 129l170 158q139 -166 305 -166q52 0 73 18q40 34 40 125q0 172 -117 286t-289 114q-51 0 -114 -19l-11 12l174 179q40 12 88 12q77 0 127 -21q66 101 66 213q0 283 -260 283q-97 0 -195 -55l-8 16l180 166q93 29 166 29q147 0 242.5 -88t95.5 -234q0 -187 -225 -352 q122 -51 194 -159t72 -240q0 -117 -80 -214q-69 -85 -236 -193q-17 -12 -51 -32q-13 -6 -73 -6q-222 0 -334 168z" />
<glyph unicode="4" d="M74 477q200 324 344.5 571.5t214.5 383.5l196 47q-4 -354 -4 -535q0 -54 1 -163t1 -163h170l-45 -141h-125q0 -193 10 -477h-216v25q0 76 6 227.5t6 224.5h-559zM231 618h402v689z" />
<glyph unicode="5" d="M156 43l139 197q108 -78 248 -78q235 0 235 235q0 152 -101.5 248t-254.5 96q-107 0 -213 -47v748h643l-33 -172h-520v-404q136 66 254 66q172 0 281.5 -103t109.5 -274q0 -146 -101 -288q-65 -91 -214 -226q-88 -80 -240 -80q-128 0 -233 82z" />
<glyph unicode="6" d="M98 551q0 424 152 639q26 37 109 115q141 131 186 157q30 17 96 17q192 0 344 -170l-129 -191q-190 156 -358 156q-57 0 -103 -21q-107 -177 -119 -563q64 64 121 118q35 34 107 95q51 35 145 35q169 0 263 -117q87 -108 87 -280q0 -204 -96 -310q-106 -117 -319 -258 q-52 -12 -105 -12q-205 0 -305 204q-76 157 -76 386zM283 633q8 -199 75 -322q89 -161 267 -161q87 0 151 36q58 92 58 217q0 149 -82 240q-85 96 -232 96q-131 0 -237 -106z" />
<glyph unicode="7" d="M170 1270l47 172h756l-207 -674h138v-80h-162l-220 -717l-125 -10l225 727h-342v80h367l156 502h-633z" />
<glyph unicode="8" d="M162 303q0 106 71 200q45 59 156 150q-211 107 -211 353q0 114 70 216q89 128 241 226q48 31 140 31q146 0 230.5 -84t84.5 -230q0 -191 -262 -385q274 -106 274 -309q0 -126 -67 -227q-51 -77 -272 -268q-45 -15 -103 -15q-157 0 -253 92q-99 94 -99 250zM334 1155 q0 -218 299 -348q110 104 110 235q0 119 -64 186.5t-183 67.5q-88 0 -120 -23q-42 -30 -42 -118zM342 420q0 -126 93 -197q84 -65 214 -65q85 0 109 33q18 26 18 116q0 122 -113 209q-68 51 -223 113q-98 -90 -98 -209z" />
<glyph unicode="9" d="M109 881q0 186 63 290q34 56 273 244q58 46 67 50q27 14 84 14q229 0 334 -199q80 -154 80 -406q0 -199 -33 -352q-38 -176 -98 -260q-23 -31 -113 -117q-55 -52 -136 -122q-18 -18 -57 -46q-36 -16 -98 -16q-186 0 -334 162l125 196q197 -149 350 -149q94 0 123 32 q38 42 68 211q26 149 28 348q-105 -124 -161 -171q-106 -88 -209 -88q-166 0 -263 108q-93 103 -93 271zM272 1051q0 -154 78 -248q84 -101 234 -101q165 0 245 117q-52 473 -352 473q-97 0 -160 -47q-45 -82 -45 -194z" />
<glyph unicode=":" horiz-adv-x="555" d="M137 102q68 56 139 142q67 -75 142 -142q-69 -61 -142 -141q-87 96 -139 141zM137 803q70 59 139 141q71 -80 142 -141q-94 -88 -142 -139q-65 71 -139 139z" />
<glyph unicode=";" horiz-adv-x="555" d="M137 803q70 59 139 141q71 -80 142 -141q-94 -88 -142 -139q-65 71 -139 139zM139 135l137 158q125 -85 125 -193q0 -111 -217 -321l-24 24q90 103 90 168q0 73 -111 164z" />
<glyph unicode="&#x3c;" horiz-adv-x="1706" d="M264 547v129l1178 483v-153l-969 -396l969 -393v-154z" />
<glyph unicode="=" horiz-adv-x="1706" d="M254 342v139h1198v-139h-1198zM254 739v140h1198v-140h-1198z" />
<glyph unicode="&#x3e;" horiz-adv-x="1706" d="M264 63v154l971 393l-971 396v153l1178 -483v-129z" />
<glyph unicode="?" horiz-adv-x="854" d="M78 1202l162 166q94 41 190 41q148 0 246 -82q104 -88 104 -233q0 -104 -85 -226q-78 -100 -157 -200q-85 -113 -85 -193q0 -51 14 -83l-191 -76q-6 34 -6 61q0 90 151 292q83 111 104 149q50 88 50 173q0 113 -69 189.5t-180 76.5q-122 0 -228 -79zM254 102 q85 74 141 142q73 -83 140 -142q-46 -40 -140 -141q-78 84 -141 141z" />
<glyph unicode="@" horiz-adv-x="2048" d="M106 522q0 280 149 508.5t406 343.5q205 92 455 92q163 0 310 -45q227 -70 368 -235q150 -177 150 -406q0 -175 -63 -315q-70 -153 -201 -248q-138 -100 -300 -100q-200 0 -200 176q-107 -174 -301 -174q-314 0 -314 332q0 221 126 380q136 173 351 173q170 0 242 -150 l57 115h132l-146 -576q-8 -32 -8 -59q0 -94 100 -94q47 0 103 27q130 62 206 208q70 134 70 287q0 279 -212 438q-190 143 -478 143q-133 0 -246 -28q-274 -68 -443 -289.5t-169 -505.5q0 -177 62 -308q90 -192 299 -296q188 -94 417 -94q346 0 621 190l55 -82 q-297 -223 -664 -223q-190 0 -348 47q-271 81 -427 283q-159 205 -159 485zM725 446q0 -219 186 -219q97 0 174 68.5t105 179.5l59 236q-35 184 -198 184q-156 0 -248 -153q-78 -130 -78 -296z" />
<glyph unicode="A" horiz-adv-x="1190" d="M-4 -12l160 426q31 81 90 245l215 637l-58 123l220 60q44 -125 178 -471q127 -330 393 -985l-229 -48l-183 508h-477l-155 -483zM350 621h383l-207 538z" />
<glyph unicode="B" d="M127 0q14 310 14 717q0 405 -14 725q275 8 389 8q170 0 248 -20q131 -35 193 -143q38 -67 38 -148q0 -245 -295 -381q326 -82 326 -346q0 -211 -182 -326q-153 -96 -377 -96q-3 0 -46 2q-148 7 -294 8zM350 121q160 -45 242 -45q19 0 55 6q156 105 156 287 q0 158 -141 237q-114 64 -285 64h-27v-549zM350 692l131 105q67 0 154 -19q158 101 158 273q0 143 -101 215q-89 63 -237 63q-50 0 -104 -6z" />
<glyph unicode="C" horiz-adv-x="1204" d="M57 645q0 421 346 666q237 168 426 168q178 0 326 -99l-145 -174q-147 92 -332 92q-194 0 -272 -61q-90 -70 -137 -208q-40 -117 -40 -249q0 -278 171.5 -453t449.5 -175q179 0 311 98l31 -39q-174 -124 -229 -157q-155 -93 -254 -93q-305 0 -481 191q-171 186 -171 493z " />
<glyph unicode="D" horiz-adv-x="1352" d="M115 0q12 276 12 717t-12 725q32 -2 98 -2q61 0 183.5 5t183.5 5q315 0 502 -144q208 -161 208 -466q0 -403 -336 -705q-162 -145 -405 -145q-41 0 -124 5t-124 5h-186zM346 655q0 -94 4 -505q119 -27 221 -27q267 0 391 108q134 115 134 377q0 337 -174 528 q-180 197 -514 197q-36 0 -58 -2z" />
<glyph unicode="E" horiz-adv-x="930" d="M115 0q12 276 12 717t-12 725q455 0 725 8l-66 -145q-73 8 -208 8q-13 0 -216 -1q-4 -25 -4 -106v-405h120q147 0 363 5l-67 -138q-103 6 -164 6h-252v-400q0 -101 4 -136q33 -3 96 -3h146q172 0 264 10l-70 -155q-178 10 -671 10z" />
<glyph unicode="F" horiz-adv-x="909" d="M115 -10q12 281 12 651v152q0 324 -9 579l-3 70q473 0 745 8l-65 -145q-74 8 -215 8h-225q-5 -153 -9 -512h114q152 0 369 5l-67 -138q-104 6 -174 6h-242q0 -291 14 -673z" />
<glyph unicode="G" horiz-adv-x="1290" d="M61 643q0 431 367 680q230 156 379 156q220 0 393 -136l-139 -167q-157 122 -381 122q-196 0 -274 -61q-90 -70 -137 -208q-40 -117 -40 -249q0 -270 178 -456q181 -189 451 -189q60 0 111 19q10 232 10 407v84h-320l135 141q177 -5 392 -8v-596q-330 -221 -496 -221 q-294 0 -466 196q-163 188 -163 486z" />
<glyph unicode="H" horiz-adv-x="1298" d="M115 -10q12 282 12 727q0 441 -12 725l245 8q-14 -336 -14 -649h606q0 245 -14 641l247 8q-14 -364 -14 -725q0 -391 15 -725l-248 -10q14 386 14 674h-606q0 -331 14 -663z" />
<glyph unicode="I" horiz-adv-x="508" d="M127 -10l2 35q12 305 12 692q0 405 -14 725l251 8q-13 -338 -13 -725q0 -413 14 -725z" />
<glyph unicode="J" horiz-adv-x="764" d="M0 82l139 149q100 -122 211 -124q47 83 47 350q0 724 -14 985l251 8q-13 -373 -13 -651q0 -65 1 -193.5t1 -193.5q0 -99 -21 -150.5t-76 -99.5q-229 -201 -331 -201q-95 0 -195 121z" />
<glyph unicode="K" d="M115 -10q12 282 12 727q0 441 -12 725l245 8l-2 -41q-12 -306 -12 -696l383 514q55 70 156 215l172 8l-533 -680l566 -698l-220 -111q-88 124 -270 367l-246 309h-8q0 -300 14 -636z" />
<glyph unicode="L" horiz-adv-x="905" d="M127 0q14 310 14 717q0 405 -14 725l251 8q-13 -353 -13 -725q0 -381 8 -588h144q211 0 357 10q-32 -66 -61 -157q-190 10 -686 10z" />
<glyph unicode="M" horiz-adv-x="1659" d="M80 -10q31 187 65 521q33 324 78 875l-18 56l231 8l371 -1157q181 460 277 724q98 272 143 425l241 8q0 -639 60 -1450l-233 -10q-10 616 -48 1149q-234 -582 -426 -1139l-153 -10q-41 162 -136 470q-94 302 -221 679q-34 -380 -92 -1139z" />
<glyph unicode="N" horiz-adv-x="1337" d="M66 1399l215 80q122 -183 761 -1096v790q0 117 -4 281l127 12q-4 -147 -4 -247v-922q0 -92 23 -272l-131 -41q-66 107 -312 466l-460 660v-365q0 -190 14 -745l-145 -10q12 647 12 787v497z" />
<glyph unicode="O" horiz-adv-x="1446" d="M61 631q0 218 80 380q87 178 264 316q193 152 375 152q275 0 446 -219q158 -202 158 -484q0 -343 -245 -573q-258 -242 -475 -242q-278 0 -446 199q-157 187 -157 471zM240 772q0 -260 154 -437q161 -185 417 -185q223 0 285 100q88 142 88 371q0 279 -132 462 q-148 207 -417 207q-219 0 -287 -98q-108 -155 -108 -420z" />
<glyph unicode="P" horiz-adv-x="1071" d="M123 -10l2 35q12 305 12 692q0 406 -14 724q60 1 215 5q136 4 215 4q204 0 322 -81q139 -95 139 -290q0 -125 -63 -228q-72 -118 -216 -207q-149 -91 -282 -91q-61 0 -97 4q0 -184 15 -557zM356 700q112 -20 168 -20q117 0 195 35q74 132 74 276q0 164 -120 254 q-108 80 -278 80q-7 0 -20 -1t-19 -1v-623z" />
<glyph unicode="Q" horiz-adv-x="1446" d="M61 631q0 195 70 353q59 133 182.5 259t255.5 188q103 48 211 48q275 0 446 -219q158 -201 158 -484q0 -301 -202 -536l190 -129l-164 -150l-184 139q-180 -139 -360 -139q-278 0 -446 199q-157 187 -157 471zM242 764q0 -296 198 -469q240 158 334 158q105 0 340 -170 q70 144 70 340q0 279 -132 462q-148 205 -417 205q-220 0 -287 -98q-106 -154 -106 -428zM469 268q140 -123 338 -123q50 0 129 17q-258 157 -328 157q-65 0 -139 -51z" />
<glyph unicode="R" horiz-adv-x="1071" d="M115 -10q12 282 12 727q0 441 -12 725q67 0 200 4t199 4q195 0 311 -70q144 -86 144 -268q0 -296 -394 -412q310 -429 484 -630l-207 -109q-201 284 -506 688q0 -314 14 -648zM346 696l166 103q49 -23 113 -33q127 92 127 252q0 138 -83 225.5t-220 87.5q-57 0 -103 -8 v-627z" />
<glyph unicode="S" horiz-adv-x="891" d="M57 174l191 125q103 -178 276 -178q28 0 61 4q50 77 50 207q0 96 -45 154.5t-188 125.5q-171 79 -230 137q-94 91 -94 246q0 186 139 335t324 149q169 0 274 -179l-178 -122q-108 151 -254 151q-40 0 -92 -12q-58 -68 -58 -180q0 -79 50 -147q57 -79 258 -173 q182 -85 235 -199q31 -68 31 -149q0 -114 -45 -212q-56 -121 -171 -206q-122 -90 -249 -90q-190 0 -285 213z" />
<glyph unicode="T" horiz-adv-x="981" d="M-4 1309l96 141q140 -8 335 -8h108q187 0 475 4l-101 -137q-224 4 -247 4l-60 -1q-2 -90 -2 -178v-234q0 -583 16 -900l-251 -10q16 343 16 964q0 60 -1 179t-1 179q-44 3 -150 3q-127 0 -233 -6z" />
<glyph unicode="U" horiz-adv-x="1294" d="M115 1442l245 8q-10 -254 -13 -566l-1 -331q0 -212 59 -304q75 -118 273 -118q138 0 225 70q45 146 45 426q0 497 -14 814l245 9q-14 -314 -14 -725q0 -431 15 -725l-246 -10q10 92 12 169q-215 -198 -393 -198q-250 0 -349 164q-77 128 -77 397v258q0 354 -12 662z" />
<glyph unicode="V" horiz-adv-x="1200" d="M16 1421l228 39q203 -696 401 -1253q222 625 412 1235l149 8q-253 -678 -378 -1035q-37 -105 -74 -209q-57 -166 -60 -206l-215 -10q-273 915 -463 1431z" />
<glyph unicode="W" horiz-adv-x="1683" d="M10 1421l226 39q224 -808 385 -1241q53 129 176 500q-74 254 -236 702l225 39q43 -154 132 -461q48 147 139 443l149 8q-144 -364 -235 -627l196 -594q236 681 385 1213l144 8q-479 -1354 -479 -1450l-199 -10q-37 141 -168 563q-99 -267 -104 -279q-77 -217 -82 -273 l-195 -11q-258 878 -459 1431z" />
<glyph unicode="X" horiz-adv-x="1090" d="M37 -10q195 294 405 686q-204 421 -389 766l246 8l274 -569l297 561l158 8q-150 -244 -393 -680q128 -259 397 -770l-252 -10l-270 571q-90 -143 -297 -561z" />
<glyph unicode="Y" horiz-adv-x="991" d="M0 1421l233 39q157 -382 320 -729q207 463 295 711l129 8q-211 -487 -377 -854v-152q0 -233 10 -443l-239 -11q12 266 12 512v94q-127 297 -383 825z" />
<glyph unicode="Z" horiz-adv-x="1014" d="M33 0q307 534 665 1266h-147q-82 0 -245 -3q-166 -3 -245 -3l64 190q428 -8 817 -8q-320 -597 -649 -1266q215 0 677 4l-55 -190q-453 9 -882 10z" />
<glyph unicode="[" horiz-adv-x="545" d="M121 -483q16 631 16 1128q0 374 -10 815h358l-59 -90h-143v-1763h209l-66 -90h-305z" />
<glyph unicode="\" horiz-adv-x="750" d="M14 1479h76l645 -1669h-76z" />
<glyph unicode="]" horiz-adv-x="545" d="M53 1370l66 90h305q-16 -408 -16 -1294q0 -239 10 -651h-359l60 90h143v1765h-209z" />
<glyph unicode="^" horiz-adv-x="2048" d="M420 901l510 557h186l510 -557h-180l-422 420l-424 -420h-180z" />
<glyph unicode="_" horiz-adv-x="1024" d="M0 -340h1024v-143h-1024v143z" />
<glyph unicode="`" horiz-adv-x="1024" d="M262 1442h178l209 -350h-106z" />
<glyph unicode="a" horiz-adv-x="891" d="M57 227q0 164 141 258q122 82 294 82q52 0 108 -12q0 9 1 28t1 29q0 122 -61 174q-57 48 -181 48q-147 0 -251 -86l-25 22l182 191q100 20 176 20q357 0 357 -338q0 -9 -5.5 -225t-5.5 -418l-194 -10l6 114q-272 -143 -287 -143q-104 0 -180 80.5t-76 185.5zM236 348 q0 -99 63 -162t162 -63q56 0 139 29v278q-119 45 -219 45q-65 0 -117 -20q-28 -48 -28 -107z" />
<glyph unicode="b" horiz-adv-x="952" d="M90 1442l204 8q-5 -333 -5 -604q280 135 289 135q35 0 91 -23q236 -101 236 -380q0 -98 -34 -224q-40 -147 -97 -196q-94 -80 -204 -140q-103 -57 -136 -57q-112 0 -342 78l2 815q0 351 -4 588zM285 369q0 -35 1 -104t1 -103q172 -66 295 -66q123 155 123 365 q0 148 -52 249q-66 130 -200 130q-33 0 -72 -15q-96 -105 -96 -456z" />
<glyph unicode="c" horiz-adv-x="834" d="M47 406q0 185 119 385q9 15 19 26q7 8 249 144q36 20 103 20q179 0 256 -223l-185 -94q-79 184 -221 184q-24 0 -68 -12q-81 -146 -81 -308q0 -178 90 -296q99 -130 272 -130q73 0 182 41l11 -22q-235 -160 -312 -160q-195 0 -315 126q-119 123 -119 319z" />
<glyph unicode="d" horiz-adv-x="963" d="M47 379q0 122 52 258q56 145 141 219q58 50 142.5 87.5t129.5 37.5q27 0 162 -28l-6 489l204 8l-2 -134q-2 -169 -2 -385v-429q0 -282 4 -502l-204 -10l4 114q-72 -41 -144 -81q-113 -62 -139 -62q-38 0 -88 20q-254 100 -254 398zM254 453q0 -140 55 -234 q68 -113 199 -113q28 0 72 11q64 69 84 223q10 77 10 245v193q-139 80 -283 80q-27 0 -53 -8q-84 -174 -84 -397z" />
<glyph unicode="e" horiz-adv-x="834" d="M47 426q0 113 30 220q37 132 107 188q80 65 173 107q88 40 145 40q140 0 219 -124q67 -106 67 -255v-27l-198 -96h-361q17 -173 118 -270q104 -100 276 -100q85 0 157 34l12 -25q-78 -48 -155 -97q-107 -60 -168 -60q-201 0 -315 134q-107 126 -107 331zM225 569h361v11 q0 113 -52 187q-59 85 -167 85q-36 0 -70 -12q-72 -100 -72 -271z" />
<glyph unicode="f" horiz-adv-x="588" d="M55 854l54 90h69q6 267 166 402q72 61 139 98q63 35 99 35q26 0 50 -6l-89 -164q-58 12 -97 12q-46 0 -57.5 -16.5t-11.5 -184.5q0 -94 2 -176h172l-49 -90h-123q0 -47 -1 -144.5t-1 -146.5q0 -307 6 -563l-209 -10q4 191 4 556v308h-123z" />
<glyph unicode="g" horiz-adv-x="1024" d="M98 -227q0 43 183 186q-166 0 -166 66q0 73 153 251q-153 88 -153 259q0 77 32 148t84 112q215 168 306 168h426l-158 -109q88 -66 88 -201q0 -91 -44 -166q-53 -90 -183 -173q-135 -87 -234 -87q-55 0 -133 33q-33 -43 -33 -74q0 -80 211 -80q28 0 85 3.5t85 3.5 q109 0 176 -45q80 -52 80 -156q0 -111 -103 -220q-90 -94 -206 -141q-87 -34 -186 -34q-125 0 -213 64q-97 71 -97 192zM283 -164q0 -174 258 -174q118 0 192 53q10 28 10 74q0 114 -68 153q-47 27 -167 27q-78 0 -174 -12q-51 -51 -51 -121zM305 629q0 -123 59 -197 q65 -80 185 -80q43 0 101 15q61 65 61 182q0 126 -70 210q-75 89 -199 89q-31 0 -64 -11q-73 -83 -73 -208z" />
<glyph unicode="h" horiz-adv-x="958" d="M90 -10l1 50q3 156 3 356v568q0 309 -4 478l204 8q-3 -359 -3 -348q0 -47 1 -141t1 -140q144 108 256 156q9 4 51 4q121 0 209 -90q30 -30 43 -79q9 -38 12 -120q1 -29 1 -67.5t-1 -86.5q-2 -122 -2 -128q0 -107 6 -409l-204 -11q4 142 4 366v186q0 179 -39 220 q-27 29 -73.5 46t-98.5 17q-57 0 -77 -8q-91 -36 -91 -483q0 -134 6 -334z" />
<glyph unicode="i" horiz-adv-x="408" d="M49 1217l146 165l145 -69l-145 -164zM100 -10q4 182 4 477t-4 477l207 8q-4 -166 -4 -475t4 -477z" />
<glyph unicode="j" horiz-adv-x="422" d="M-6 -457q68 27 98 119q27 86 27 358v269q0 358 -6 655l209 8q-5 -165 -5 -735q0 -293 -12 -368q-13 -78 -41 -123q-70 -110 -260 -209zM63 1217l144 165l145 -69l-145 -164z" />
<glyph unicode="k" horiz-adv-x="938" d="M100 -10q4 141 4 499v491q0 329 -4 462l203 8q-4 -180 -4 -487v-469q139 146 403 450l162 8q-255 -258 -385 -397l436 -492l-194 -88l-424 482q0 -174 6 -456z" />
<glyph unicode="l" horiz-adv-x="408" d="M100 -10q4 142 4 544v418q0 348 -4 490l207 8q-4 -229 -4 -632v-243q0 -351 4 -575z" />
<glyph unicode="m" horiz-adv-x="1403" d="M90 -10q4 182 4 477t-4 477l205 8q0 -31 -2 -131q43 30 117 80q42 30 100 68q28 12 72 12q149 0 206 -160q53 43 106 85q81 62 108 71q15 4 34 4q113 0 184 -52q68 -52 80 -144q7 -54 7 -267q0 -338 4 -518l-203 -10q6 368 6 522q0 189 -40 254t-140 65q-63 0 -78 -22 q-55 -78 -55 -332q0 -229 6 -477l-205 -10q6 232 6 409q0 288 -37 358t-133 70q-85 0 -117 -90.5t-32 -462.5q0 -104 6 -274z" />
<glyph unicode="n" horiz-adv-x="958" d="M90 -10q4 182 4 402v173q0 200 -4 379l205 8q0 -31 -2 -131q144 108 256 156q9 4 51 4q120 0 209 -90q30 -30 43 -79q10 -38 12 -120q1 -29 1 -67.5t-1 -86.5q-2 -121 -2 -128q0 -107 6 -409l-204 -11q4 141 4 366v184q0 181 -39 222q-27 29 -73.5 46t-98.5 17 q-56 0 -77 -8q-91 -35 -91 -483q0 -134 6 -334z" />
<glyph unicode="o" horiz-adv-x="963" d="M47 389q0 171 94 363l254 200q37 29 144 29q184 0 283 -114q93 -107 93 -294q0 -193 -102 -387l-233 -188q-46 -37 -138 -37q-185 0 -292 123q-103 118 -103 305zM231 514q0 -175 77 -276q87 -113 257 -113q63 0 111 27q53 98 53 290q0 160 -62 266q-76 130 -225 130 q-60 0 -129 -25q-82 -80 -82 -299z" />
<glyph unicode="p" horiz-adv-x="948" d="M90 -483q4 224 4 566v378q0 278 -4 483l205 8q-2 -75 -2 -112l225 137q7 4 41 4q154 0 253 -137q89 -123 89 -283q0 -246 -164 -451q-24 -30 -127 -85q-120 -64 -153 -64q-53 0 -168 33q0 -79 3 -234q3 -162 3 -233zM287 371q0 -78 4 -213q148 -78 262 -78q27 0 57 10 q86 162 86 383q0 145 -58 248q-71 125 -206 125q-24 0 -52 -7q-93 -99 -93 -468z" />
<glyph unicode="q" horiz-adv-x="963" d="M45 379q0 114 40 238q43 137 115 209q63 64 201 122q81 33 134 33q48 0 157 -37l180 19q-4 -206 -4 -504v-454q0 -307 4 -478l-204 -10q4 277 4 370v215q-160 -96 -254 -139q-173 0 -276 124q-97 116 -97 292zM238 461q0 -145 81 -242q86 -104 228 -104q23 0 49 6 q80 66 80 536v131q-144 78 -256 78q-46 0 -88 -18q-94 -174 -94 -387z" />
<glyph unicode="r" horiz-adv-x="649" d="M98 -10q5 319 5 419v116q0 99 -5 419l208 8l-6 -135q158 164 231 164q68 0 144 -164l-180 -127q-53 129 -103 129t-74 -158q-16 -103 -16 -210q0 -275 4 -451z" />
<glyph unicode="s" horiz-adv-x="750" d="M72 180l176 84q80 -184 211 -184q47 58 47 133q0 62 -53 103q-30 23 -109 55q-256 104 -256 276q0 78 25 129q24 48 84 90q164 115 225 115q171 0 250 -211l-166 -88q-60 172 -201 172q-24 0 -33 -3q-36 -47 -36 -110q0 -71 77 -123q34 -24 160 -79q103 -45 137 -84 q56 -64 56 -162q0 -124 -97 -211q-67 -61 -209 -121q-228 4 -288 219z" />
<glyph unicode="t" horiz-adv-x="653" d="M27 854l98 90h37v176l194 66v-242h250l-102 -90h-146q-2 -167 -2 -280v-163q0 -198 25 -247q26 -53 94 -53q59 0 119 26l14 -24q-177 -152 -297 -152q-85 0 -118 51q-32 47 -34 314q1 -116 2 -116t1 452q0 141 -3 192h-132z" />
<glyph unicode="u" horiz-adv-x="958" d="M90 944l205 8l-2 -56q-4 -168 -4 -387v-111q0 -175 39 -216q28 -29 77 -47q46 -18 97 -18q53 0 74 9q94 39 94 484q0 142 -6 334l204 8q-6 -242 -6 -475q0 -240 6 -476l-204 -11q0 63 2 133q-185 -133 -259 -156q-7 -2 -45 -2q-268 0 -268 307v260q0 217 -4 412z" />
<glyph unicode="v" horiz-adv-x="854" d="M2 944l201 37l268 -791l260 754l121 19q-326 -846 -326 -891q0 -14 20 -62l-202 -20q-89 284 -342 954z" />
<glyph unicode="w" horiz-adv-x="1298" d="M41 944l205 37q91 -436 188 -778q59 171 176 653l-30 88l202 37l187 -778l194 741l123 8q-104 -318 -177 -567q-75 -254 -105 -385l-181 -10q-46 225 -159 698l-195 -688l-180 -10q-101 469 -248 954z" />
<glyph unicode="x" horiz-adv-x="883" d="M4 930l209 51q84 -135 258 -399q115 147 264 370l142 11q-197 -248 -351 -459q96 -149 340 -490l-225 -37q-116 194 -235 367q-135 -169 -250 -344l-142 -10q155 183 334 434q-37 57 -344 506z" />
<glyph unicode="y" horiz-adv-x="891" d="M0 952l217 29q161 -472 289 -743l256 706l127 19q-289 -698 -551 -1436l-148 -10q82 167 207 458q-200 520 -397 977z" />
<glyph unicode="z" horiz-adv-x="844" d="M33 -10l536 809h-458l53 153h616l-530 -800h233q220 0 311 10l-47 -172q-134 10 -274 10q-189 0 -440 -10z" />
<glyph unicode="{" horiz-adv-x="1024" d="M168 457v149q7 0 22 -1t23 -1q136 0 190 68q48 60 48 200v246q0 118 11 170q21 95 89 137q83 52 315 52v-150q-161 0 -202 -44.5t-41 -184.5v-242q0 -142 -34 -208q-43 -85 -167 -118q126 -31 169 -120q32 -64 32 -205v-242q0 -141 41.5 -185t201.5 -44v-148h-43 q-193 0 -272 49q-68 42 -89 138q-11 52 -11 170v245q0 141 -48 202q-55 69 -192 69q-7 0 -21.5 -1t-21.5 -1z" />
<glyph unicode="|" horiz-adv-x="1024" d="M438 -483v2048h150v-2048h-150z" />
<glyph unicode="}" horiz-adv-x="1024" d="M160 -266q159 0 201 45t42 186v240q0 142 34 208q43 85 167 117q-124 33 -167 118q-34 66 -34 208v242q0 140 -42 184.5t-201 44.5v150h37q195 0 278 -52q55 -34 77 -94.5t25 -237.5q-2 121 -2 -221q0 -147 54 -207q38 -43 107 -54q31 -5 122 -5v-149q-7 0 -21.5 1 t-21.5 1q-138 0 -192 -68q-48 -61 -48 -203v-245q0 -118 -11 -170q-21 -96 -89 -138q-79 -49 -315 -49v148z" />
<glyph unicode="~" horiz-adv-x="1706" d="M178 451v155q212 144 387 144q111 0 302 -68t276 -68q166 0 387 156v-156q-204 -141 -389 -141q-98 0 -288 67.5t-290 67.5q-160 0 -385 -157z" />
<glyph d="M20 545l19 67h129q0 135 14 215h-162l19 68h158q61 249 249 416q97 86 179.5 127t154.5 41q124 0 267 -86l-144 -170q-121 75 -244 75q-52 0 -122 -24t-91 -47q-85 -90 -104 -332h520l-18 -68h-506v-47q0 -93 14 -167l434 -1l-18 -67h-401q45 -171 151 -276 q118 -117 285 -117q127 0 239 90l31 -39q-257 -242 -383 -242q-239 0 -378 177q-121 155 -140 407h-152z" />
<glyph unicode="&#xa0;" />
<glyph unicode="&#xa1;" horiz-adv-x="602" d="M166 1260q59 54 139 141q69 -75 141 -141q-87 -75 -141 -142q-65 77 -139 142zM190 -39q49 540 70 1067l94 19q7 -422 21 -667q14 -254 37 -380z" />
<glyph unicode="&#xa2;" d="M143 686q0 396 387 541l-4 227l76 21l-2 -234q262 0 354 -227l-184 -76q-35 124 -170 156v-697q86 -20 135 -20q101 0 191 47l14 -27l-229 -139q-12 -7 -111 -13l2 -253l-76 -12l4 268q-189 18 -289 134q-98 113 -98 304zM328 805q0 -282 202 -379v680q-30 4 -47 4 q-56 0 -92 -14q-63 -97 -63 -291z" />
<glyph unicode="&#xa3;" d="M41 0l55 170q136 30 183 134q32 71 32 228q0 -20 -4 127h-207v76l205 1q-2 28 -2 63q0 142 30 232q44 132 231 304q114 105 153 127q31 17 98 17q134 0 246 -82l-152 -197q-130 74 -239 74q-57 0 -103 -21q-58 -58 -74 -209q-6 -58 -6 -229q0 -13 1 -40t1 -40h256v-76 h-251q2 -38 2 -102q0 -143 -23 -201q-15 -39 -71.5 -87t-147.5 -99h704l-59 -170h-858z" />
<glyph unicode="&#xa4;" d="M20 545l19 67h129q0 135 14 215h-162l19 68h158q61 249 249 416q97 86 179.5 127t154.5 41q124 0 267 -86l-144 -170q-121 75 -244 75q-52 0 -122 -24t-91 -47q-85 -90 -104 -332h520l-18 -68h-506v-47q0 -93 14 -167l434 -1l-18 -67h-401q45 -171 151 -276 q118 -117 285 -117q127 0 239 90l31 -39q-257 -242 -383 -242q-239 0 -378 177q-121 155 -140 407h-152z" />
<glyph unicode="&#xa5;" d="M86 596v68h354l-98 215h-256v67h223q-96 209 -223 475l221 39q72 -171 217 -514h205q69 164 195 496l123 8l-222 -504h222v-67h-250q-32 -72 -99 -215h349v-68h-381v-92q0 -236 12 -504l-217 -10q10 213 10 445v161h-385zM551 879q10 -33 76 -217l75 216z" />
<glyph unicode="&#xa6;" horiz-adv-x="1024" d="M438 -350v758h150v-758h-150zM438 674v758h150v-758h-150z" />
<glyph unicode="&#xa7;" horiz-adv-x="1024" d="M66 705q0 77 60 139q37 38 126 94q-88 94 -88 195q0 67 23 116q35 78 136 152q106 78 187 78q123 0 209.5 -67.5t111.5 -186.5l-147 -74q-58 209 -254 209q-46 0 -92 -12q-47 -47 -47 -109q0 -120 143 -228q62 -46 285 -165q171 -91 209 -153q26 -44 26 -109 q0 -78 -60 -140q-37 -40 -126 -94q90 -88 90 -192q0 -69 -22 -118q-35 -78 -137 -154q-107 -79 -189 -79q-288 0 -377 256l148 74q86 -217 292 -217q54 0 111 19q47 43 47 108q0 128 -172 245q-160 94 -321 188q-172 112 -172 225zM211 772q0 -84 261 -234q168 -96 255 -153 q84 43 84 133q0 83 -274 241q-160 92 -242 144q-84 -43 -84 -131z" />
<glyph unicode="&#xa8;" horiz-adv-x="1024" d="M195 1249q64 57 124 127q61 -69 127 -127q-73 -65 -127 -125q-55 64 -124 125zM578 1249q64 57 124 127q61 -69 127 -127q-73 -65 -127 -125q-55 64 -124 125z" />
<glyph unicode="&#xa9;" horiz-adv-x="1706" d="M117 727q0 305 215.5 521t519.5 216q309 0 524 -214t215 -523q0 -304 -217.5 -520.5t-521.5 -216.5q-301 0 -518 218t-217 519zM213 727q0 -262 189.5 -450.5t451.5 -188.5q264 0 451.5 187.5t187.5 451.5q0 268 -185.5 454.5t-453.5 186.5q-264 0 -452.5 -188.5 t-188.5 -452.5zM463 733q0 191 100 313q108 132 295 132q134 0 228 -68q102 -74 114 -203h-147q-27 160 -205 160q-121 0 -180 -116q-45 -89 -45 -224q0 -136 48 -223q61 -109 187 -109q175 0 205 176h145q-9 -138 -116 -218q-98 -74 -240 -74q-194 0 -297 133 q-92 121 -92 321z" />
<glyph unicode="&#xaa;" horiz-adv-x="668" d="M43 924q0 117 109 182q92 55 217 55q40 0 82 -8q0 6 1 19t1 20q0 156 -183 156q-110 0 -188 -60l-19 15l137 132q58 15 132 15q268 0 268 -236q0 -75 -4 -225t-4 -225l-146 -6l5 80q-202 -101 -215 -101q-76 0 -134.5 55.5t-58.5 131.5zM176 1008q0 -71 49 -114.5 t121 -43.5q34 0 105 20v194q-88 32 -164 32q-50 0 -88 -15q-23 -29 -23 -73z" />
<glyph unicode="&#xab;" horiz-adv-x="883" d="M74 420l358 416l41 -35l-242 -309l244 -275l-119 -108zM397 420l359 416l43 -35l-244 -309l246 -275l-121 -108z" />
<glyph unicode="&#xac;" horiz-adv-x="1706" d="M254 721v139h1198v-502h-137v363h-1061z" />
<glyph unicode="&#xad;" horiz-adv-x="502" d="M43 410l57 143h361l-58 -143h-360z" />
<glyph unicode="&#xae;" horiz-adv-x="1706" d="M117 727q0 219 126.5 410.5t328.5 273.5q130 53 280 53q307 0 523 -215t216 -522q0 -305 -217 -521t-522 -216q-301 0 -518 218t-217 519zM213 727q0 -259 188.5 -449t446.5 -190q266 0 455.5 184t189.5 449q0 272 -183.5 459.5t-455.5 187.5q-264 0 -452.5 -188.5 t-188.5 -452.5zM557 324v835h315q349 0 349 -229q0 -187 -191 -225l187 -381h-177l-170 356h-155v-356h-158zM715 780h133q211 0 211 133q0 144 -215 144h-129v-277z" />
<glyph unicode="&#xaf;" horiz-adv-x="1024" d="M254 1188v125h516v-125h-516z" />
<glyph unicode="&#xb0;" horiz-adv-x="674" d="M49 1167q0 121 84 205t205 84q120 0 203.5 -84.5t83.5 -204.5q0 -121 -84 -203.5t-205 -82.5t-204 82.5t-83 203.5zM143 1169q0 -82 56.5 -139t138.5 -57q81 0 136.5 57t55.5 139t-55.5 137.5t-136.5 55.5q-82 0 -138.5 -56t-56.5 -137z" />
<glyph unicode="&#xb1;" horiz-adv-x="1706" d="M254 29v141h1198v-141h-1198zM254 713v139h528v340h142v-340h528v-139h-528v-340h-142v340h-528z" />
<glyph unicode="&#xb2;" horiz-adv-x="733" d="M53 575l37 103q192 52 224 74q28 19 73 84q80 116 80 241q0 126 -65 200q-69 77 -193 77q-90 0 -143 -37l-9 6l105 107q31 32 145 32q130 0 208.5 -82t78.5 -213q0 -275 -305 -489h317l-39 -103h-514z" />
<glyph unicode="&#xb3;" horiz-adv-x="733" d="M106 653l113 95q95 -101 201 -101q27 0 49 12q27 31 27 74q0 108 -82 176q-77 64 -187 64q-32 0 -76 -10l-6 8l115 106q24 6 57 6q54 0 84 -12q43 61 43 129q0 170 -172 170q-61 0 -127 -35l-6 11l119 100q66 16 111 16q92 0 154 -49q67 -53 67 -143q0 -114 -148 -211 q176 -70 176 -240q0 -85 -85 -160q-48 -43 -158 -104q-16 -2 -47 -2q-147 0 -222 100z" />
<glyph unicode="&#xb4;" horiz-adv-x="1024" d="M375 1092l209 350h178l-281 -350h-106z" />
<glyph unicode="&#xb6;" horiz-adv-x="1024" d="M66 1130q0 166 116 261q108 88 277 88h499v-86h-120v-1393h-111v1393h-176v-1393h-113v782q-162 8 -263 95q-109 94 -109 253z" />
<glyph unicode="&#xb7;" horiz-adv-x="555" d="M172 739q0 42 31 73.5t73 31.5q43 0 74 -31t31 -74t-31 -73.5t-74 -30.5q-41 0 -72.5 31.5t-31.5 72.5z" />
<glyph unicode="&#xb8;" horiz-adv-x="1024" d="M299 -336q163 -35 246 -35q121 0 121 82q0 100 -136 100q-23 0 -53 -3l-2 192h74v-106q248 0 248 -177q0 -182 -246 -182q-84 0 -252 43v86z" />
<glyph unicode="&#xb9;" horiz-adv-x="733" d="M289 575q12 205 12 556v106q0 35 -2 95q-2 71 -2 95l145 35q-8 -268 -8 -475v-99q0 -145 8 -313h-153z" />
<glyph unicode="&#xba;" horiz-adv-x="723" d="M35 1036q0 120 71 254l190 141q26 19 107 19q135 0 209 -75t74 -210q0 -132 -76 -270l-176 -133q-33 -25 -102 -25q-135 0 -216 82t-81 217zM174 1124q0 -272 250 -272q47 0 83 18q40 68 40 203q0 115 -49 189q-57 88 -166 88q-68 0 -96 -17q-62 -37 -62 -209z" />
<glyph unicode="&#xbb;" horiz-adv-x="883" d="M82 725l121 111l280 -312l-358 -415l-41 32l242 312zM406 725l120 111l281 -312l-358 -415l-41 32l243 312z" />
<glyph unicode="&#xbc;" horiz-adv-x="1741" d="M276 633l1 41q9 241 9 549q0 29 -2 94q-2 61 -2 94v19l139 30q-8 -185 -8 -495q0 -176 8 -332h-145zM355 -39l951 1518h73l-950 -1518h-74zM1086 266q122 176 353 535l123 26q-2 -223 -2 -299q0 -30 1 -91t1 -91h106l-29 -80h-77q0 -96 5 -266h-136v13q0 43 4 127.5 t4 125.5h-353zM1185 346h254v385z" />
<glyph unicode="&#xbd;" horiz-adv-x="1741" d="M276 633l1 41q9 241 9 549q0 29 -2 94q-2 61 -2 94v19l139 30q-8 -185 -8 -495q0 -176 8 -332h-145zM355 -39l951 1518h73l-950 -1518h-74zM1091 0l34 94q89 24 213 72q64 43 107 135q41 87 41 168q0 119 -65 188.5t-183 69.5q-82 0 -135 -35l-8 6q95 94 105 101 q43 28 132 28q124 0 199.5 -75.5t75.5 -198.5q0 -255 -293 -459h305l-39 -94h-489z" />
<glyph unicode="&#xbe;" horiz-adv-x="1741" d="M102 705l107 88q89 -93 192 -93q28 0 48 11q24 33 24 69q0 101 -79 165q-74 59 -177 59q-24 0 -72 -10l-8 7l111 99q22 8 55 8q46 0 80 -12q41 55 41 118q0 160 -164 160q-59 0 -123 -31l-4 9l113 92q50 16 104 16q89 0 148 -45q65 -49 65 -135q0 -105 -141 -197 q168 -61 168 -223q0 -65 -50 -119q-70 -77 -181 -126q-11 -5 -48 -5q-137 0 -209 95zM356 -39l951 1518h73l-950 -1518h-74zM1087 266q122 176 353 535l123 26q-2 -223 -2 -299q0 -30 1 -91t1 -91h106l-29 -80h-77q0 -96 5 -266h-136v13q0 43 4 127.5t4 125.5h-353z M1186 346h254v385z" />
<glyph unicode="&#xbf;" horiz-adv-x="854" d="M78 276q0 107 85 229l158 198q85 111 85 192q0 47 -15 84l191 75q6 -38 6 -53q0 -48 -13 -86q-15 -44 -119 -183q-173 -233 -173 -341q0 -123 68 -199q71 -79 192 -79q100 0 217 82l20 -25l-162 -166q-100 -43 -190 -43q-148 0 -246 82q-104 88 -104 233zM324 1268 q58 55 139 141q68 -74 141 -141q-87 -75 -141 -142q-59 70 -139 142z" />
<glyph unicode="&#xc0;" horiz-adv-x="1190" d="M-4 -12l160 426q31 81 90 245l215 637l-58 123l220 60q44 -125 178 -471q127 -330 393 -985l-229 -48l-183 508h-477l-155 -483zM305 1940h178l209 -350h-106zM350 621h383l-207 538z" />
<glyph unicode="&#xc1;" horiz-adv-x="1190" d="M-4 -12l160 426q31 81 90 245l215 637l-58 123l220 60q44 -125 178 -471q127 -330 393 -985l-229 -48l-183 508h-477l-155 -483zM350 621h383l-207 538zM418 1590l209 350h178l-281 -350h-106z" />
<glyph unicode="&#xc2;" horiz-adv-x="1190" d="M-4 -12l160 426q31 81 90 245l215 637l-58 123l220 60q44 -125 178 -471q127 -330 393 -985l-229 -48l-183 508h-477l-155 -483zM272 1583l228 290h108l228 -290l-138 -27l-143 207l-143 -207zM350 621h383l-207 538z" />
<glyph unicode="&#xc3;" horiz-adv-x="1190" d="M-4 -12l160 426q31 81 90 245l215 637l-58 123l220 60q44 -125 178 -471q127 -330 393 -985l-229 -48l-183 508h-477l-155 -483zM264 1649q43 186 197 186q35 0 100 -23.5t100 -23.5q73 0 97 70h88q-50 -193 -199 -193q-35 0 -99.5 23.5t-98.5 23.5q-68 0 -97 -63h-88z M350 621h383l-207 538z" />
<glyph unicode="&#xc4;" horiz-adv-x="1190" d="M-4 -12l160 426q31 81 90 245l215 637l-58 123l220 60q44 -125 178 -471q127 -330 393 -985l-229 -48l-183 508h-477l-155 -483zM238 1747q64 57 124 127q61 -69 127 -127q-73 -65 -127 -125q-55 64 -124 125zM350 621h383l-207 538zM621 1747q64 57 124 127 q61 -69 127 -127q-73 -65 -127 -125q-55 64 -124 125z" />
<glyph unicode="&#xc5;" horiz-adv-x="1190" d="M-4 -12l160 426q31 81 90 245l215 637l-31 54l219 59q23 -67 152 -401q127 -330 393 -985l-229 -48l-183 508h-477l-155 -483zM324 1724q0 105 71 176.5t176 71.5q106 0 177 -71t71 -177q0 -105 -71.5 -176t-176.5 -71t-176 71t-71 176zM350 621h383l-207 538zM428 1724 q0 -60 41.5 -101.5t101.5 -41.5t101 41.5t41 101.5q0 61 -40.5 102.5t-101.5 41.5q-60 0 -101.5 -42t-41.5 -102z" />
<glyph unicode="&#xc6;" horiz-adv-x="1702" d="M0 -12q428 747 735 1317l-86 137q672 0 940 8l-65 -145q-74 8 -219 8h-205q-4 -25 -4 -104v-408h100q199 0 383 6l-68 -139q-102 6 -174 6h-241v-405q0 -95 4 -132q44 -2 211 -2q204 0 294 10l-69 -155q-178 10 -671 10q9 310 11 483h-442l-256 -483zM508 621h366v692z " />
<glyph unicode="&#xc7;" horiz-adv-x="1204" d="M57 645q0 421 346 666q237 168 426 168q178 0 326 -99l-145 -174q-147 92 -332 92q-194 0 -272 -61q-90 -70 -137 -208q-40 -117 -40 -249q0 -278 171.5 -453t449.5 -175q179 0 311 98l31 -39q-174 -124 -229 -157q-155 -93 -254 -93q-305 0 -481 191q-171 186 -171 493z M389 -336q163 -35 246 -35q121 0 121 82q0 100 -136 100q-23 0 -53 -3l-2 192h74v-106q248 0 248 -177q0 -182 -246 -182q-84 0 -252 43v86z" />
<glyph unicode="&#xc8;" horiz-adv-x="930" d="M115 0q12 276 12 717t-12 725q455 0 725 8l-66 -145q-73 8 -208 8q-13 0 -216 -1q-4 -25 -4 -106v-405h120q147 0 363 5l-67 -138q-103 6 -164 6h-252v-400q0 -101 4 -136q33 -3 96 -3h146q172 0 264 10l-70 -155q-178 10 -671 10zM215 1940h178l209 -350h-106z" />
<glyph unicode="&#xc9;" horiz-adv-x="930" d="M115 0q12 276 12 717t-12 725q455 0 725 8l-66 -145q-73 8 -208 8q-13 0 -216 -1q-4 -25 -4 -106v-405h120q147 0 363 5l-67 -138q-103 6 -164 6h-252v-400q0 -101 4 -136q33 -3 96 -3h146q172 0 264 10l-70 -155q-178 10 -671 10zM328 1590l209 350h178l-281 -350h-106z " />
<glyph unicode="&#xca;" horiz-adv-x="930" d="M115 0q12 276 12 717t-12 725q455 0 725 8l-66 -145q-73 8 -208 8q-13 0 -216 -1q-4 -25 -4 -106v-405h120q147 0 363 5l-67 -138q-103 6 -164 6h-252v-400q0 -101 4 -136q33 -3 96 -3h146q172 0 264 10l-70 -155q-178 10 -671 10zM182 1583l228 290h108l228 -290 l-138 -27l-143 207l-143 -207z" />
<glyph unicode="&#xcb;" horiz-adv-x="930" d="M115 0q12 276 12 717t-12 725q455 0 725 8l-66 -145q-73 8 -208 8q-13 0 -216 -1q-4 -25 -4 -106v-405h120q147 0 363 5l-67 -138q-103 6 -164 6h-252v-400q0 -101 4 -136q33 -3 96 -3h146q172 0 264 10l-70 -155q-178 10 -671 10zM148 1747q64 57 124 127 q61 -69 127 -127q-73 -65 -127 -125q-55 64 -124 125zM531 1747q64 57 124 127q61 -69 127 -127q-73 -65 -127 -125q-55 64 -124 125z" />
<glyph unicode="&#xcc;" horiz-adv-x="508" d="M4 1940h178l209 -350h-106zM127 -10l2 35q12 305 12 692q0 405 -14 725l251 8q-13 -338 -13 -725q0 -413 14 -725z" />
<glyph unicode="&#xcd;" horiz-adv-x="508" d="M117 1590l209 350h178l-281 -350h-106zM127 -10l2 35q12 305 12 692q0 405 -14 725l251 8q-13 -338 -13 -725q0 -413 14 -725z" />
<glyph unicode="&#xce;" horiz-adv-x="508" d="M-29 1633l228 290h108l228 -290l-138 -27l-143 207l-143 -207zM127 -10l2 35q12 305 12 692q0 405 -14 725l251 8q-13 -338 -13 -725q0 -413 14 -725z" />
<glyph unicode="&#xcf;" horiz-adv-x="508" d="M-63 1747q64 57 124 127q61 -69 127 -127q-73 -65 -127 -125q-55 64 -124 125zM127 -10l2 35q12 305 12 692q0 405 -14 725l251 8q-13 -338 -13 -725q0 -413 14 -725zM320 1747q64 57 124 127q61 -69 127 -127q-73 -65 -127 -125q-55 64 -124 125z" />
<glyph unicode="&#xd0;" horiz-adv-x="1352" d="M0 688v80h127q0 352 -12 674q78 0 233 4t232 4q315 0 502 -144q208 -160 208 -466q0 -403 -336 -705q-162 -145 -405 -145q-41 0 -124 5t-124 5h-186q12 282 12 688h-127zM346 688q0 -320 4 -538q119 -27 221 -27q267 0 391 108q134 115 134 377q0 337 -174 528 q-180 197 -514 197q-36 0 -58 -2q-4 -284 -4 -563h328v-80h-328z" />
<glyph unicode="&#xd1;" horiz-adv-x="1337" d="M66 1399l215 80q122 -183 761 -1096v790q0 117 -4 281l127 12q-4 -147 -4 -247v-922q0 -92 23 -272l-131 -41q-66 107 -312 466l-460 660v-365q0 -190 14 -745l-145 -10q12 647 12 787v497zM379 1649q43 186 197 186q35 0 100 -23.5t100 -23.5q73 0 97 70h88 q-50 -193 -199 -193q-35 0 -99.5 23.5t-98.5 23.5q-68 0 -97 -63h-88z" />
<glyph unicode="&#xd2;" horiz-adv-x="1446" d="M61 631q0 218 80 380q87 178 264 316q193 152 375 152q275 0 446 -219q158 -202 158 -484q0 -343 -245 -573q-258 -242 -475 -242q-278 0 -446 199q-157 187 -157 471zM240 772q0 -260 154 -437q161 -185 417 -185q223 0 285 100q88 142 88 371q0 279 -132 462 q-148 207 -417 207q-219 0 -287 -98q-108 -155 -108 -420zM473 1940h178l209 -350h-106z" />
<glyph unicode="&#xd3;" horiz-adv-x="1446" d="M61 631q0 218 80 380q87 178 264 316q193 152 375 152q275 0 446 -219q158 -202 158 -484q0 -343 -245 -573q-258 -242 -475 -242q-278 0 -446 199q-157 187 -157 471zM240 772q0 -260 154 -437q161 -185 417 -185q223 0 285 100q88 142 88 371q0 279 -132 462 q-148 207 -417 207q-219 0 -287 -98q-108 -155 -108 -420zM586 1590l209 350h178l-281 -350h-106z" />
<glyph unicode="&#xd4;" horiz-adv-x="1446" d="M61 631q0 218 80 380q87 178 264 316q193 152 375 152q275 0 446 -219q158 -202 158 -484q0 -343 -245 -573q-258 -242 -475 -242q-278 0 -446 199q-157 187 -157 471zM240 772q0 -260 154 -437q161 -185 417 -185q223 0 285 100q88 142 88 371q0 279 -132 462 q-148 207 -417 207q-219 0 -287 -98q-108 -155 -108 -420zM442 1583l228 290h108l228 -290l-138 -27l-143 207l-143 -207z" />
<glyph unicode="&#xd5;" horiz-adv-x="1446" d="M61 631q0 218 80 380q87 178 264 316q193 152 375 152q275 0 446 -219q158 -202 158 -484q0 -343 -245 -573q-258 -242 -475 -242q-278 0 -446 199q-157 187 -157 471zM240 772q0 -260 154 -437q161 -185 417 -185q223 0 285 100q88 142 88 371q0 279 -132 462 q-148 207 -417 207q-219 0 -287 -98q-108 -155 -108 -420zM432 1649q43 186 197 186q35 0 100 -23.5t100 -23.5q73 0 97 70h88q-50 -193 -199 -193q-35 0 -99.5 23.5t-98.5 23.5q-68 0 -97 -63h-88z" />
<glyph unicode="&#xd6;" horiz-adv-x="1446" d="M61 631q0 218 80 380q87 178 264 316q193 152 375 152q275 0 446 -219q158 -202 158 -484q0 -343 -245 -573q-258 -242 -475 -242q-278 0 -446 199q-157 187 -157 471zM240 772q0 -260 154 -437q161 -185 417 -185q223 0 285 100q88 142 88 371q0 279 -132 462 q-148 207 -417 207q-219 0 -287 -98q-108 -155 -108 -420zM406 1747q64 57 124 127q61 -69 127 -127q-73 -65 -127 -125q-55 64 -124 125zM789 1747q64 57 124 127q61 -69 127 -127q-73 -65 -127 -125q-55 64 -124 125z" />
<glyph unicode="&#xd7;" horiz-adv-x="1706" d="M293 141l469 469l-469 469l98 99l469 -469l469 469l98 -99l-469 -469l469 -469l-98 -96l-469 467l-469 -467z" />
<glyph unicode="&#xd8;" horiz-adv-x="1446" d="M61 631q0 226 102.5 421.5t289.5 317.5q167 109 327 109q196 0 357 -125l116 164h86l-149 -215q194 -210 194 -527q0 -149 -50.5 -288t-135.5 -228q-286 -299 -547 -299q-167 0 -323 105l-152 -218h-88l184 263q-211 189 -211 520zM242 764q0 -257 172 -449l581 834 q-147 141 -360 141q-221 0 -287 -98q-106 -156 -106 -428zM469 266q144 -116 346 -116q221 0 281 100q88 146 88 368q0 305 -140 474z" />
<glyph unicode="&#xd9;" horiz-adv-x="1294" d="M115 1442l245 8q-10 -254 -13 -566l-1 -331q0 -212 59 -304q75 -118 273 -118q138 0 225 70q45 146 45 426q0 497 -14 814l245 9q-14 -314 -14 -725q0 -431 15 -725l-246 -10q10 92 12 169q-215 -198 -393 -198q-250 0 -349 164q-77 128 -77 397v258q0 354 -12 662z M397 1940h178l209 -350h-106z" />
<glyph unicode="&#xda;" horiz-adv-x="1294" d="M115 1442l245 8q-10 -254 -13 -566l-1 -331q0 -212 59 -304q75 -118 273 -118q138 0 225 70q45 146 45 426q0 497 -14 814l245 9q-14 -314 -14 -725q0 -431 15 -725l-246 -10q10 92 12 169q-215 -198 -393 -198q-250 0 -349 164q-77 128 -77 397v258q0 354 -12 662z M510 1590l209 350h178l-281 -350h-106z" />
<glyph unicode="&#xdb;" horiz-adv-x="1294" d="M115 1442l245 8q-10 -254 -13 -566l-1 -331q0 -212 59 -304q75 -118 273 -118q138 0 225 70q45 146 45 426q0 497 -14 814l245 9q-14 -314 -14 -725q0 -431 15 -725l-246 -10q10 92 12 169q-215 -198 -393 -198q-250 0 -349 164q-77 128 -77 397v258q0 354 -12 662z M364 1633l228 290h108l228 -290l-138 -27l-143 207l-143 -207z" />
<glyph unicode="&#xdc;" horiz-adv-x="1294" d="M115 1442l245 8q-10 -254 -13 -566l-1 -331q0 -212 59 -304q75 -118 273 -118q138 0 225 70q45 146 45 426q0 497 -14 814l245 9q-14 -314 -14 -725q0 -431 15 -725l-246 -10q10 92 12 169q-215 -198 -393 -198q-250 0 -349 164q-77 128 -77 397v258q0 354 -12 662z M330 1747q64 57 124 127q61 -69 127 -127q-73 -65 -127 -125q-55 64 -124 125zM713 1747q64 57 124 127q61 -69 127 -127q-73 -65 -127 -125q-55 64 -124 125z" />
<glyph unicode="&#xdd;" horiz-adv-x="991" d="M0 1421l233 39q157 -382 320 -729q207 463 295 711l129 8q-211 -487 -377 -854v-152q0 -233 10 -443l-239 -11q12 266 12 512v94q-127 297 -383 825zM359 1590l209 350h178l-281 -350h-106z" />
<glyph unicode="&#xde;" horiz-adv-x="1071" d="M123 -10l2 35q12 305 12 692q0 406 -14 724l247 9q-1 -30 -6 -117q-4 -74 -3 -117v-12q36 6 157 6q496 0 496 -370q0 -130 -67 -234q-51 -80 -158.5 -161t-198.5 -110q-66 -22 -139 -22q-67 0 -93 4q0 -37 13 -317zM356 459q93 -19 168 -19q113 0 195 35q74 132 74 277 q0 164 -120 253q-108 80 -278 80q-7 0 -20 -1t-19 -1v-624z" />
<glyph unicode="&#xdf;" horiz-adv-x="1067" d="M55 854l54 90h69q3 134 34 219q38 102 132 180q83 69 142.5 102.5t95.5 33.5q119 0 202 -92q80 -89 80 -209q0 -144 -151 -301q274 -64 274 -351q0 -90 -34 -207q-39 -135 -95 -178q-97 -76 -204 -129q-101 -51 -144 -51q-21 0 -71 6l44 142q104 -25 156 -25q5 0 14 1 t13 1q122 142 122 334q0 140 -54 233q-67 113 -197 113q-32 0 -72 -12l-16 53q104 38 170 79q84 52 100 87q12 26 12 82q0 121 -79 208t-199 87q-44 0 -62 -63q-16 -57 -16 -333q0 -414 8 -954l-209 -10q4 191 4 556v308h-123z" />
<glyph unicode="&#xe0;" horiz-adv-x="891" d="M57 227q0 164 141 258q122 82 294 82q52 0 108 -12q0 9 1 28t1 29q0 122 -61 174q-57 48 -181 48q-147 0 -251 -86l-25 22l182 191q100 20 176 20q357 0 357 -338q0 -9 -5.5 -225t-5.5 -418l-194 -10l6 114q-272 -143 -287 -143q-104 0 -180 80.5t-76 185.5zM236 348 q0 -99 63 -162t162 -63q56 0 139 29v278q-119 45 -219 45q-65 0 -117 -20q-28 -48 -28 -107zM244 1442h178l209 -350h-106z" />
<glyph unicode="&#xe1;" horiz-adv-x="891" d="M57 227q0 164 141 258q122 82 294 82q52 0 108 -12q0 9 1 28t1 29q0 122 -61 174q-57 48 -181 48q-147 0 -251 -86l-25 22l182 191q100 20 176 20q357 0 357 -338q0 -9 -5.5 -225t-5.5 -418l-194 -10l6 114q-272 -143 -287 -143q-104 0 -180 80.5t-76 185.5zM236 348 q0 -99 63 -162t162 -63q56 0 139 29v278q-119 45 -219 45q-65 0 -117 -20q-28 -48 -28 -107zM357 1092l209 350h178l-281 -350h-106z" />
<glyph unicode="&#xe2;" horiz-adv-x="891" d="M57 227q0 164 141 258q122 82 294 82q52 0 108 -12q0 9 1 28t1 29q0 122 -61 174q-57 48 -181 48q-147 0 -251 -86l-25 22l182 191q100 20 176 20q357 0 357 -338q0 -9 -5.5 -225t-5.5 -418l-194 -10l6 114q-272 -143 -287 -143q-104 0 -180 80.5t-76 185.5zM191 1135 l228 290h108l228 -290l-138 -27l-143 207l-143 -207zM236 348q0 -99 63 -162t162 -63q56 0 139 29v278q-119 45 -219 45q-65 0 -117 -20q-28 -48 -28 -107z" />
<glyph unicode="&#xe3;" horiz-adv-x="891" d="M57 227q0 164 141 258q122 82 294 82q52 0 108 -12q0 9 1 28t1 29q0 122 -61 174q-57 48 -181 48q-147 0 -251 -86l-25 22l182 191q100 20 176 20q357 0 357 -338q0 -9 -5.5 -225t-5.5 -418l-194 -10l6 114q-272 -143 -287 -143q-104 0 -180 80.5t-76 185.5zM203 1151 q43 186 197 186q35 0 100 -23.5t100 -23.5q73 0 97 70h88q-50 -193 -199 -193q-35 0 -99.5 23.5t-98.5 23.5q-68 0 -97 -63h-88zM236 348q0 -99 63 -162t162 -63q56 0 139 29v278q-119 45 -219 45q-65 0 -117 -20q-28 -48 -28 -107z" />
<glyph unicode="&#xe4;" horiz-adv-x="891" d="M57 227q0 164 141 258q122 82 294 82q52 0 108 -12q0 9 1 28t1 29q0 122 -61 174q-57 48 -181 48q-147 0 -251 -86l-25 22l182 191q100 20 176 20q357 0 357 -338q0 -9 -5.5 -225t-5.5 -418l-194 -10l6 114q-272 -143 -287 -143q-104 0 -180 80.5t-76 185.5zM177 1249 q64 57 124 127q61 -69 127 -127q-73 -65 -127 -125q-55 64 -124 125zM236 348q0 -99 63 -162t162 -63q56 0 139 29v278q-119 45 -219 45q-65 0 -117 -20q-28 -48 -28 -107zM560 1249q64 57 124 127q61 -69 127 -127q-73 -65 -127 -125q-55 64 -124 125z" />
<glyph unicode="&#xe5;" horiz-adv-x="891" d="M57 227q0 164 141 258q122 82 294 82q52 0 108 -12q0 9 1 28t1 29q0 122 -61 174q-57 48 -181 48q-147 0 -251 -86l-25 22l182 191q100 20 176 20q357 0 357 -338q0 -9 -5.5 -225t-5.5 -418l-194 -10l6 114q-76 -40 -151 -80q-119 -63 -136 -63q-104 0 -180 80.5 t-76 185.5zM229 1296q0 105 72.5 175.5t177.5 70.5t176.5 -70.5t71.5 -175.5t-71.5 -177t-176.5 -72t-177.5 72t-72.5 177zM236 348q0 -99 63 -162t162 -63q56 0 139 29v278q-119 45 -219 45q-65 0 -117 -20q-28 -48 -28 -107zM336 1294q0 -61 41 -102t102 -41 q60 0 101 41.5t41 101.5q0 61 -40.5 102.5t-101.5 41.5q-60 0 -101.5 -42t-41.5 -102z" />
<glyph unicode="&#xe6;" horiz-adv-x="1399" d="M57 227q0 164 141 258q122 82 294 82q52 0 108 -12q0 9 1 28t1 29q0 122 -61 174q-57 48 -181 48q-147 0 -251 -86l-25 22l182 191q100 20 176 20q229 0 314 -143q203 143 309 143q141 0 221 -124q68 -106 68 -255v-27l-199 -96h-362q16 -172 119.5 -271t275.5 -99 q83 0 155 34l15 -24q-230 -158 -326 -158q-241 0 -350 186q-353 -186 -369 -186q-104 0 -180 80.5t-76 185.5zM236 348q0 -99 63 -162t162 -63q75 0 203 53q-52 110 -52 248q-122 51 -231 51q-65 0 -117 -20q-28 -48 -28 -107zM788 569h363v11q0 113 -53 187q-59 85 -168 85 q-33 0 -67 -12q-75 -103 -75 -271z" />
<glyph unicode="&#xe7;" horiz-adv-x="834" d="M47 406q0 185 119 385q9 15 19 26q7 8 249 144q36 20 103 20q179 0 256 -223l-185 -94q-79 184 -221 184q-24 0 -68 -12q-81 -146 -81 -308q0 -178 90 -296q99 -130 272 -130q73 0 182 41l11 -22q-235 -160 -312 -160q-195 0 -315 126q-119 123 -119 319zM213 -336 q163 -35 246 -35q121 0 121 82q0 100 -136 100q-23 0 -53 -3l-2 192h74v-106q248 0 248 -177q0 -182 -246 -182q-84 0 -252 43v86z" />
<glyph unicode="&#xe8;" horiz-adv-x="834" d="M47 426q0 113 30 220q37 132 107 188q80 65 173 107q88 40 145 40q140 0 219 -124q67 -106 67 -255v-27l-198 -96h-361q17 -173 118 -270q104 -100 276 -100q85 0 157 34l12 -25q-78 -48 -155 -97q-107 -60 -168 -60q-201 0 -315 134q-107 126 -107 331zM211 1442h178 l209 -350h-106zM225 569h361v11q0 113 -52 187q-59 85 -167 85q-36 0 -70 -12q-72 -100 -72 -271z" />
<glyph unicode="&#xe9;" horiz-adv-x="834" d="M47 426q0 113 30 220q37 132 107 188q80 65 173 107q88 40 145 40q140 0 219 -124q67 -106 67 -255v-27l-198 -96h-361q17 -173 118 -270q104 -100 276 -100q85 0 157 34l12 -25q-78 -48 -155 -97q-107 -60 -168 -60q-201 0 -315 134q-107 126 -107 331zM225 569h361v11 q0 113 -52 187q-59 85 -167 85q-36 0 -70 -12q-72 -100 -72 -271zM324 1092l209 350h178l-281 -350h-106z" />
<glyph unicode="&#xea;" horiz-adv-x="834" d="M47 426q0 113 30 220q37 132 107 188q80 65 173 107q88 40 145 40q140 0 219 -124q67 -106 67 -255v-27l-198 -96h-361q17 -173 118 -270q104 -100 276 -100q85 0 157 34l12 -25q-78 -48 -155 -97q-107 -60 -168 -60q-201 0 -315 134q-107 126 -107 331zM178 1135 l228 290h108l228 -290l-138 -27l-143 207l-143 -207zM225 569h361v11q0 113 -52 187q-59 85 -167 85q-36 0 -70 -12q-72 -100 -72 -271z" />
<glyph unicode="&#xeb;" horiz-adv-x="834" d="M47 426q0 113 30 220q37 132 107 188q80 65 173 107q88 40 145 40q140 0 219 -124q67 -106 67 -255v-27l-198 -96h-361q17 -173 118 -270q104 -100 276 -100q85 0 157 34l12 -25q-78 -48 -155 -97q-107 -60 -168 -60q-201 0 -315 134q-107 126 -107 331zM144 1249 q64 57 124 127q61 -69 127 -127q-73 -65 -127 -125q-55 64 -124 125zM225 569h361v11q0 113 -52 187q-59 85 -167 85q-36 0 -70 -12q-72 -100 -72 -271zM527 1249q64 57 124 127q61 -69 127 -127q-73 -65 -127 -125q-55 64 -124 125z" />
<glyph unicode="&#xec;" horiz-adv-x="408" d="M-45 1442h178l209 -350h-106zM100 -10q4 182 4 477t-4 477l207 8q-4 -166 -4 -475t4 -477z" />
<glyph unicode="&#xed;" horiz-adv-x="408" d="M68 1092l209 350h178l-281 -350h-106zM100 -10q4 182 4 477t-4 477l207 8q-4 -166 -4 -475t4 -477z" />
<glyph unicode="&#xee;" horiz-adv-x="408" d="M-78 1135l228 290h108l228 -290l-138 -27l-143 207l-143 -207zM100 -10q4 182 4 477t-4 477l207 8q-4 -166 -4 -475t4 -477z" />
<glyph unicode="&#xef;" horiz-adv-x="408" d="M-112 1249q64 57 124 127q61 -69 127 -127q-73 -65 -127 -125q-55 64 -124 125zM100 -10q4 182 4 477t-4 477l207 8q-4 -166 -4 -475t4 -477zM271 1249q64 57 124 127q61 -69 127 -127q-73 -65 -127 -125q-55 64 -124 125z" />
<glyph unicode="&#xf0;" horiz-adv-x="963" d="M47 389q0 171 94 363l254 200q29 23 101 23q62 0 137 -27q-120 144 -227 230l-179 -129l-39 47l166 123q-105 83 -170 124l154 136q60 -38 180 -138l164 121l41 -47l-162 -119q354 -346 354 -710q0 -206 -102 -400l-233 -188q-46 -37 -138 -37q-185 0 -292 123 q-103 118 -103 305zM231 514q0 -175 77 -276q87 -113 257 -113q63 0 111 27q53 98 53 290q0 160 -62 266q-76 130 -225 130q-60 0 -129 -25q-82 -80 -82 -299z" />
<glyph unicode="&#xf1;" horiz-adv-x="958" d="M90 -10q4 182 4 402v173q0 200 -4 379l205 8q0 -31 -2 -131q144 108 256 156q9 4 51 4q120 0 209 -90q30 -30 43 -79q10 -38 12 -120q2 -58 0 -154q-2 -121 -2 -128q0 -107 6 -409l-204 -11q4 141 4 366v184q0 181 -39 222q-27 29 -73.5 46t-98.5 17q-56 0 -77 -8 q-91 -35 -91 -483q0 -134 6 -334zM188 1151q43 186 197 186q35 0 100 -23.5t100 -23.5q73 0 97 70h88q-50 -193 -199 -193q-35 0 -99.5 23.5t-98.5 23.5q-68 0 -97 -63h-88z" />
<glyph unicode="&#xf2;" horiz-adv-x="963" d="M47 389q0 171 94 363l254 200q37 29 144 29q184 0 283 -114q93 -107 93 -294q0 -193 -102 -387l-233 -188q-46 -37 -138 -37q-185 0 -292 123q-103 118 -103 305zM231 514q0 -175 77 -276q87 -113 257 -113q63 0 111 27q53 98 53 290q0 160 -62 266q-76 130 -225 130 q-60 0 -129 -25q-82 -80 -82 -299zM272 1442h178l209 -350h-106z" />
<glyph unicode="&#xf3;" horiz-adv-x="963" d="M47 389q0 171 94 363l254 200q37 29 144 29q184 0 283 -114q93 -107 93 -294q0 -193 -102 -387l-233 -188q-46 -37 -138 -37q-185 0 -292 123q-103 118 -103 305zM231 514q0 -175 77 -276q87 -113 257 -113q63 0 111 27q53 98 53 290q0 160 -62 266q-76 130 -225 130 q-60 0 -129 -25q-82 -80 -82 -299zM385 1092l209 350h178l-281 -350h-106z" />
<glyph unicode="&#xf4;" horiz-adv-x="963" d="M47 389q0 171 94 363l254 200q37 29 144 29q184 0 283 -114q93 -107 93 -294q0 -193 -102 -387l-233 -188q-46 -37 -138 -37q-185 0 -292 123q-103 118 -103 305zM231 514q0 -175 77 -276q87 -113 257 -113q63 0 111 27q53 98 53 290q0 160 -62 266q-76 130 -225 130 q-60 0 -129 -25q-82 -80 -82 -299zM239 1135l228 290h108l228 -290l-138 -27l-143 207l-143 -207z" />
<glyph unicode="&#xf5;" horiz-adv-x="963" d="M47 389q0 171 94 363l254 200q37 29 144 29q184 0 283 -114q93 -107 93 -294q0 -193 -102 -387l-233 -188q-46 -37 -138 -37q-185 0 -292 123q-103 118 -103 305zM231 514q0 -175 77 -276q87 -113 257 -113q63 0 111 27q53 98 53 290q0 160 -62 266q-76 130 -225 130 q-60 0 -129 -25q-82 -80 -82 -299zM231 1151q43 186 197 186q35 0 100 -23.5t100 -23.5q73 0 97 70h88q-50 -193 -199 -193q-35 0 -99.5 23.5t-98.5 23.5q-68 0 -97 -63h-88z" />
<glyph unicode="&#xf6;" horiz-adv-x="963" d="M47 389q0 171 94 363l254 200q37 29 144 29q184 0 283 -114q93 -107 93 -294q0 -193 -102 -387l-233 -188q-46 -37 -138 -37q-185 0 -292 123q-103 118 -103 305zM205 1249q64 57 124 127q61 -69 127 -127q-73 -65 -127 -125q-55 64 -124 125zM231 514q0 -175 77 -276 q87 -113 257 -113q63 0 111 27q53 98 53 290q0 160 -62 266q-76 130 -225 130q-60 0 -129 -25q-82 -80 -82 -299zM588 1249q64 57 124 127q61 -69 127 -127q-73 -65 -127 -125q-55 64 -124 125z" />
<glyph unicode="&#xf7;" horiz-adv-x="1706" d="M254 541v139h1198v-139h-1198zM729 242q0 51 37 88t88 37t88 -37t37 -88q0 -52 -36.5 -88.5t-88.5 -36.5q-53 0 -89 36t-36 89zM729 979q0 52 36.5 89.5t88.5 37.5t88.5 -37.5t36.5 -89.5t-36.5 -88.5t-88.5 -36.5t-88.5 36.5t-36.5 88.5z" />
<glyph unicode="&#xf8;" horiz-adv-x="963" d="M37 -104l129 176q-119 109 -119 317q0 173 94 363l254 200q37 29 144 29q140 0 235 -72l90 125h70l-117 -162q98 -106 98 -299q0 -189 -102 -387l-233 -188q-46 -37 -138 -37q-124 0 -235 72l-98 -137h-72zM231 518q0 -175 66 -264l352 483q-89 101 -207 101 q-66 0 -129 -25q-82 -80 -82 -295zM336 209q90 -84 229 -84q63 0 111 27q53 95 53 290q0 136 -51 240z" />
<glyph unicode="&#xf9;" horiz-adv-x="958" d="M90 944l205 8l-2 -56q-4 -168 -4 -387v-111q0 -175 39 -216q28 -29 77 -47q46 -18 97 -18q53 0 74 9q94 39 94 484q0 142 -6 334l204 8q-6 -242 -6 -475q0 -240 6 -476l-204 -11q0 63 2 133q-185 -133 -259 -156q-7 -2 -45 -2q-268 0 -268 307v260q0 217 -4 412z M229 1442h178l209 -350h-106z" />
<glyph unicode="&#xfa;" horiz-adv-x="958" d="M90 944l205 8l-2 -56q-4 -168 -4 -387v-111q0 -175 39 -216q28 -29 77 -47q46 -18 97 -18q53 0 74 9q94 39 94 484q0 142 -6 334l204 8q-6 -242 -6 -475q0 -240 6 -476l-204 -11q0 63 2 133q-185 -133 -259 -156q-7 -2 -45 -2q-268 0 -268 307v260q0 217 -4 412z M342 1092l209 350h178l-281 -350h-106z" />
<glyph unicode="&#xfb;" horiz-adv-x="958" d="M90 944l205 8l-2 -56q-4 -168 -4 -387v-111q0 -175 39 -216q28 -29 77 -47q46 -18 97 -18q53 0 74 9q94 39 94 484q0 142 -6 334l204 8q-6 -242 -6 -475q0 -240 6 -476l-204 -11q0 63 2 133q-185 -133 -259 -156q-7 -2 -45 -2q-268 0 -268 307v260q0 217 -4 412z M196 1135l228 290h108l228 -290l-138 -27l-143 207l-143 -207z" />
<glyph unicode="&#xfc;" horiz-adv-x="958" d="M90 944l205 8l-2 -56q-4 -168 -4 -387v-111q0 -175 39 -216q28 -29 77 -47q46 -18 97 -18q53 0 74 9q94 39 94 484q0 142 -6 334l204 8q-6 -242 -6 -475q0 -240 6 -476l-204 -11q0 63 2 133q-185 -133 -259 -156q-7 -2 -45 -2q-268 0 -268 307v260q0 217 -4 412z M162 1249q64 57 124 127q61 -69 127 -127q-73 -65 -127 -125q-55 64 -124 125zM545 1249q64 57 124 127q61 -69 127 -127q-73 -65 -127 -125q-55 64 -124 125z" />
<glyph unicode="&#xfd;" horiz-adv-x="891" d="M0 952l217 29q161 -472 289 -743l256 706l127 19q-289 -698 -551 -1436l-148 -10q82 167 207 458q-200 520 -397 977zM309 1092l209 350h178l-281 -350h-106z" />
<glyph unicode="&#xfe;" horiz-adv-x="948" d="M90 -483q4 199 4 645v658q0 425 -4 621l209 9q-4 -129 -6 -610l225 137q7 4 41 4q154 0 253 -137q89 -123 89 -283q0 -249 -164 -451q-25 -31 -127 -85q-120 -64 -153 -64q-53 0 -168 33q0 -80 3 -234q3 -165 3 -233zM287 371q0 -78 4 -213q148 -78 262 -78q27 0 57 10 q86 162 86 383q0 145 -58 248q-71 125 -206 125q-24 0 -52 -7q-93 -99 -93 -468z" />
<glyph unicode="&#xff;" horiz-adv-x="891" d="M0 952l217 29q161 -472 289 -743l256 706l127 19q-289 -698 -551 -1436l-148 -10q82 167 207 458q-200 520 -397 977zM129 1249q64 57 124 127q61 -69 127 -127q-73 -65 -127 -125q-55 64 -124 125zM512 1249q64 57 124 127q61 -69 127 -127q-73 -65 -127 -125 q-55 64 -124 125z" />
<glyph unicode="&#x152;" horiz-adv-x="1976" d="M61 631q0 215 83 383q88 179 262 315q192 150 374 150q233 0 389 -197l-12 160q454 0 721 8l-67 -145q-74 8 -215 8h-207q-5 -22 -5 -104v-408h101q218 0 382 6l-67 -139q-102 6 -174 6h-242v-404q0 -101 5 -133q44 -2 210 -2q205 0 295 10l-69 -155q-178 10 -674 10 l18 229q-260 -268 -505 -268q-278 0 -446 199q-157 187 -157 471zM240 772q0 -259 154 -437q162 -188 417 -188q224 0 287 103q90 147 90 416q0 271 -116 439q-135 193 -394 193q-95 0 -183 -24q-104 -29 -145 -78q-33 -39 -69 -153q-41 -131 -41 -271z" />
<glyph unicode="&#x153;" horiz-adv-x="1511" d="M47 389q0 171 94 363l254 200q37 29 144 29q209 0 313 -156q205 156 326 156q141 0 220 -124q68 -106 68 -255v-27l-198 -96h-363q17 -173 119 -270q104 -100 276 -100q84 0 156 34l14 -24q-232 -158 -325 -158q-242 0 -363 203l-202 -166q-45 -37 -138 -37 q-185 0 -292 123q-103 118 -103 305zM231 514q0 -175 77 -276q87 -113 257 -113q63 0 111 27q53 98 53 290q0 160 -62 266q-76 130 -225 130q-60 0 -129 -25q-82 -80 -82 -299zM903 569h361v11q0 113 -53 188q-60 84 -169 84q-31 0 -67 -12q-72 -100 -72 -271z" />
<glyph unicode="&#x178;" horiz-adv-x="991" d="M0 1421l233 39q157 -382 320 -729q207 463 295 711l129 8q-211 -487 -377 -854v-152q0 -233 10 -443l-239 -11q12 266 12 512v94q-127 297 -383 825zM179 1747q64 57 124 127q61 -69 127 -127q-73 -65 -127 -125q-55 64 -124 125zM562 1747q64 57 124 127 q61 -69 127 -127q-73 -65 -127 -125q-55 64 -124 125z" />
<glyph unicode="&#x2c6;" horiz-adv-x="1024" d="M229 1135l228 290h108l228 -290l-138 -27l-143 207l-143 -207z" />
<glyph unicode="&#x2dc;" horiz-adv-x="1024" d="M221 1151q43 186 197 186q35 0 100 -23.5t100 -23.5q73 0 97 70h88q-50 -193 -199 -193q-35 0 -99.5 23.5t-98.5 23.5q-68 0 -97 -63h-88z" />
<glyph unicode="&#x2000;" horiz-adv-x="986" />
<glyph unicode="&#x2001;" horiz-adv-x="1972" />
<glyph unicode="&#x2002;" horiz-adv-x="986" />
<glyph unicode="&#x2003;" horiz-adv-x="1972" />
<glyph unicode="&#x2004;" horiz-adv-x="657" />
<glyph unicode="&#x2005;" horiz-adv-x="493" />
<glyph unicode="&#x2006;" horiz-adv-x="328" />
<glyph unicode="&#x2007;" horiz-adv-x="328" />
<glyph unicode="&#x2008;" horiz-adv-x="246" />
<glyph unicode="&#x2009;" horiz-adv-x="394" />
<glyph unicode="&#x200a;" horiz-adv-x="109" />
<glyph unicode="&#x2010;" horiz-adv-x="502" d="M43 410l57 143h361l-58 -143h-360z" />
<glyph unicode="&#x2011;" horiz-adv-x="502" d="M43 410l57 143h361l-58 -143h-360z" />
<glyph unicode="&#x2012;" horiz-adv-x="502" d="M43 410l57 143h361l-58 -143h-360z" />
<glyph unicode="&#x2013;" horiz-adv-x="1024" d="M0 418v123h1024v-123h-1024z" />
<glyph unicode="&#x2014;" horiz-adv-x="2048" d="M0 418v123h2048v-123h-2048z" />
<glyph unicode="&#x2018;" horiz-adv-x="555" d="M152 1155q0 109 198 324l29 -25q-82 -99 -82 -166q0 -78 121 -166l-131 -159q-135 85 -135 192z" />
<glyph unicode="&#x2019;" horiz-adv-x="555" d="M135 1319l131 160q135 -86 135 -195q0 -110 -198 -323l-27 24q82 101 82 166q0 76 -123 168z" />
<glyph unicode="&#x201a;" horiz-adv-x="555" d="M135 82l131 162q135 -86 135 -195q0 -110 -198 -323l-27 24q82 104 82 166q0 75 -123 166z" />
<glyph unicode="&#x201c;" horiz-adv-x="920" d="M152 1155q0 109 198 324l29 -25q-82 -99 -82 -166q0 -78 121 -166l-131 -159q-135 85 -135 192zM518 1155q0 108 199 324l26 -25q-81 -100 -81 -166q0 -76 122 -166l-131 -159q-135 85 -135 192z" />
<glyph unicode="&#x201d;" horiz-adv-x="920" d="M135 1319l131 160q135 -86 135 -195q0 -110 -198 -323l-27 24q82 101 82 166q0 76 -123 168zM502 1319l131 160q135 -86 135 -195t-199 -323l-28 24q82 103 82 166q0 76 -121 168z" />
<glyph unicode="&#x201e;" horiz-adv-x="920" d="M135 82l131 162q135 -86 135 -195q0 -110 -198 -323l-27 24q82 104 82 166q0 75 -123 166zM502 82l131 162q135 -86 135 -195t-199 -323l-28 24q82 106 82 166q0 75 -121 166z" />
<glyph unicode="&#x2022;" horiz-adv-x="1208" d="M307 762q0 124 86.5 209.5t210.5 85.5q123 0 209 -86t86 -209t-87 -210t-210 -87q-124 0 -209.5 86.5t-85.5 210.5z" />
<glyph unicode="&#x2026;" horiz-adv-x="2048" d="M200 102q68 56 139 142q67 -75 142 -142q-69 -61 -142 -141q-87 96 -139 141zM882 102q68 56 139 142q67 -75 142 -142q-69 -61 -142 -141q-87 96 -139 141zM1567 102q68 56 139 142q67 -75 142 -142q-69 -61 -142 -141q-87 96 -139 141z" />
<glyph unicode="&#x202f;" horiz-adv-x="394" />
<glyph unicode="&#x2039;" horiz-adv-x="559" d="M74 420l358 416l41 -35l-242 -309l244 -275l-119 -108z" />
<glyph unicode="&#x203a;" horiz-adv-x="559" d="M80 725l121 111l282 -312l-358 -415l-43 32l244 312z" />
<glyph unicode="&#x205f;" horiz-adv-x="493" />
<glyph unicode="&#x2122;" horiz-adv-x="1706" d="M242 1378v80h452v-80h-172v-458h-108v458h-172zM813 920v538h150l151 -385l141 385h150v-538h-98v444l-166 -444h-56l-174 444v-444h-98z" />
<glyph unicode="&#xe000;" horiz-adv-x="980" d="M0 0v980h980v-980h-980z" />
</font>
</defs>
</svg>
